<svg width="244" height="672" viewBox="0 0 244 672" fill="none" xmlns="http://www.w3.org/2000/svg">
<path d="M118 586.617L3.19999 586.617L3.19999 566.117L111.768 531.349L111.768 529.381L3.19998 494.613L3.19998 474.113L118 474.113L118 484.281L9.43198 484.281L9.43198 486.249L118 521.017L118 539.713L9.43199 574.481L9.43199 576.449L118 576.449L118 586.617ZM118 455.351L3.19998 417.795L3.19998 399.099L118 361.543L118 372.531L87.496 382.371L87.496 434.523L118 444.363L118 455.351ZM77.984 431.571L77.984 385.323L9.43198 407.463L9.43198 409.431L77.984 431.571ZM118 327.128L12.712 327.128L12.712 365.504L3.19998 365.504L3.19997 278.256L12.712 278.256L12.712 316.632L118 316.632L118 327.128ZM120.296 224.191C120.296 237.639 116.36 248.408 108.488 256.499C100.507 264.48 88.8626 268.471 73.556 268.471L47.644 268.471C32.3373 268.471 20.748 264.48 12.876 256.499C4.89464 248.408 0.903973 237.639 0.903972 224.191C0.903972 210.852 4.67597 200.684 12.22 193.687C19.6546 186.58 29.8226 183.027 42.724 183.027L43.544 183.027L43.544 193.523L42.396 193.523C32.9933 193.523 25.34 196.037 19.436 201.067C13.4226 205.987 10.416 213.695 10.416 224.191C10.416 234.796 13.6413 243.105 20.092 249.119C26.5426 255.023 35.6173 257.975 47.316 257.975L73.884 257.975C85.5826 257.975 94.6573 255.023 101.108 249.119C107.559 243.105 110.784 234.796 110.784 224.191C110.784 213.695 107.832 205.987 101.928 201.067C95.9146 196.037 88.2066 193.523 78.804 193.523L76.344 193.523L76.344 183.027L78.476 183.027C91.3773 183.027 101.6 186.58 109.144 193.687C116.579 200.684 120.296 210.852 120.296 224.191ZM118 159.8L3.19997 159.8L3.19997 149.304L55.68 149.304L55.68 90.9203L3.19997 90.9203L3.19997 80.4243L118 80.4243L118 90.9203L65.192 90.9203L65.192 149.304L118 149.304L118 159.8ZM241 671.242L126.2 633.686L126.2 614.99L241 577.434L241 588.422L210.496 598.262L210.496 650.414L241 660.254L241 671.242ZM200.984 647.462L200.984 601.214L132.432 623.354L132.432 625.322L200.984 647.462ZM241 558.75L126.2 558.75L126.2 537.922L234.768 491.018L234.768 489.049L126.2 489.05L126.2 478.554L241 478.553L241 499.382L132.268 546.286L132.268 548.254L241 548.254L241 558.75ZM241 450.324L126.2 450.324L126.2 439.828L241 439.828L241 450.324ZM241 411.566L126.2 411.566L126.2 391.066L234.768 356.298L234.768 354.33L126.2 319.562L126.2 299.062L241 299.062L241 309.23L132.432 309.23L132.432 311.198L241 345.966L241 364.662L132.432 399.43L132.432 401.398L241 401.398L241 411.566ZM241 280.301L126.2 242.745L126.2 224.049L241 186.493L241 197.481L210.496 207.321L210.496 259.473L241 269.313L241 280.301ZM200.984 256.521L200.984 210.273L132.432 232.413L132.432 234.381L200.984 256.521ZM241 167.808L126.2 167.808L126.2 157.312L231.488 157.312L231.488 96.9601L241 96.9601L241 167.808ZM243.296 40.5646C243.296 48.7646 241.875 56.0899 239.032 62.5406C236.08 68.9913 231.652 74.0753 225.748 77.7926C219.735 81.5099 212.136 83.3686 202.952 83.3686L199.836 83.3686L199.836 72.8726L202.952 72.8726C213.557 72.8726 221.429 69.8659 226.568 63.8526C231.597 57.7299 234.112 49.9673 234.112 40.5646C234.112 31.0526 231.925 23.7273 227.552 18.5886C223.069 13.4499 217.384 10.8806 210.496 10.8806C205.904 10.8806 202.241 12.0286 199.508 14.3246C196.665 16.5113 194.424 19.6273 192.784 23.6726C191.035 27.6086 189.504 32.2006 188.192 37.4486L185.568 47.9446C183.928 54.1766 181.905 59.7526 179.5 64.6726C176.985 69.5926 173.76 73.4739 169.824 76.3166C165.779 79.1593 160.64 80.5806 154.408 80.5806C148.176 80.5806 142.764 78.9953 138.172 75.8246C133.58 72.5446 130.081 68.0619 127.676 62.3766C125.161 56.6913 123.904 50.0766 123.904 42.5326C123.904 34.9886 125.216 28.2099 127.84 22.1966C130.464 16.0739 134.345 11.2633 139.484 7.7646C144.513 4.1566 150.855 2.3526 158.508 2.3526L166.216 2.3526L166.216 12.8486L158.508 12.8486C152.495 12.8486 147.629 14.1606 143.912 16.7846C140.195 19.4086 137.461 22.9619 135.712 27.4446C133.963 31.9273 133.088 36.9566 133.088 42.5326C133.088 50.5139 134.947 57.1286 138.664 62.3766C142.272 67.5153 147.52 70.0846 154.408 70.0846C159 70.0846 162.663 69.0459 165.396 66.9686C168.129 64.7819 170.316 61.7753 171.956 57.9486C173.596 54.0126 175.072 49.4206 176.384 44.1726L179.008 33.6766C180.429 27.6633 182.343 22.1419 184.748 17.1126C187.044 12.0833 190.269 8.03793 194.424 4.9766C198.469 1.91527 203.827 0.3846 210.496 0.3846C217.165 0.384599 222.96 2.07926 227.88 5.46859C232.8 8.7486 236.627 13.3953 239.36 19.4086C241.984 25.4219 243.296 32.4739 243.296 40.5646Z" fill="#D5BFF2"/>
</svg>